<svg xmlns="http://www.w3.org/2000/svg" preserveAspectRatio="xMidYMid meet" version="1.0" viewBox="0 -100 3724 500" width="200px" height="200px">
  <g fill="#000000" stroke="none">
    <path d="M1659 592.6c-61.4 1.3-139.9 9.4-213 22-50.3 8.6-102.3 21.9-159 40.6-151.6 49.9-286.3 133.1-381.2 235.5-92.2 99.5-144.7 210.5-148.5 314.3-1.3 35 4.8 73.4 16 102.3 11.9 30.2 25.3 51.5 46.7 74.1 34.2 36.1 88.3 62.8 147 72.5 28.2 4.7 61.2 6.3 100.5 5 92.6-3.1 169.2-21.5 245-58.9 54.3-26.8 98-57.5 151.5-106.5 38.1-34.9 75.7-75.9 145.3-158.2 15.4-18.2 25.6-29.5 27-29.8 1.2-.2 21.8-1.8 45.7-3.5 23.9-1.7 54.1-4 67-5 12.9-1 23.6-1.6 23.8-1.5.2.1-1.7 3.1-4.1 6.6-6.6 9.5-15.7 28.7-15.7 33.1 0 .4 8.8.8 19.5.8h19.5l1.7-2.8c7.9-12.7 13.7-20.5 20.6-27.5 9.2-9.3 17.7-14.9 27.6-18.2l6.6-2.3.3-20.1c.1-11-.1-20.1-.4-20.1-.4 0-6.6 1.1-13.8 2.5-29.9 5.6-84.6 12.5-124.1 15.5-14.3 1.1-29.6 2.2-34 2.6l-8 .6 2.1-2.4c50.5-57.1 85.1-91.6 124.4-124.4 61.7-51.5 131.5-90.2 202.5-112.4 16.8-5.2 43.8-12 64.3-16.1 13.5-2.7 16.2-3.5 15.8-4.8-.2-.9-1.9-9.3-3.6-18.7l-3.2-17.1-7.7 1.4c-41.7 7.8-86.3 20.8-122.8 35.8-20.9 8.7-62.5 29.4-78.8 39.2-29.7 18-64.3 42.4-88 62.3-47.7 39.9-76.1 68.4-139.6 140l-16.4 18.5-18.5.7c-10.2.4-53.3.5-95.7.2l-77.3-.6v38l30.3.7c16.6.4 52.1.6 78.9.4 32.6-.3 48.4-.1 48 .6-.3.5-6.5 8-13.6 16.5-111.7 133-187.4 199.1-279.1 243.6-56.9 27.7-116.7 44.4-182 50.8-62.1 6.2-117.6 3.6-159.2-7.4-22.5-6-47.8-16.5-64.8-27-17.6-10.8-37.8-29-49.5-44.5-20.6-27.3-31.3-52.7-37.7-89-2.5-14.2-2.5-57.9.1-75 4-27.7 10.1-50.9 20.3-78.5 34.3-92.2 100.8-178.8 196.3-255.5 52.3-42 122.6-84.3 188.9-113.7 122.6-54.4 249.3-84.2 407.1-95.8 23.6-1.8 95.4-2.4 132-1.1 62.5 2.1 105.5 7.1 187 21.7 61.1 10.9 89.5 17.2 194.5 42.9 105.9 25.9 145.8 34.8 195.5 43.4 104.2 18.1 199 22.4 266.3 12 60.1-9.2 108.3-26.1 158.2-55.4 15.8-9.2 37.9-23.7 39-25.5.6-1-21-30-22.4-30-.4 0-2.3 1.2-4.2 2.6-13.6 10.1-45.3 28.4-65.6 37.7-56.5 26.1-106.9 37.2-174.3 38.4-61.2 1.1-112.2-3.4-186.5-16.3-53.5-9.4-80.5-15.1-146-30.9-126.4-30.6-199.9-47.6-238-55-54.1-10.4-122.7-19.1-178-22.5-18-1.1-82.4-1.9-108.5-1.4zM2463.5 904.2c-13 .7-33.8 4.1-49 7.9-74.3 18.9-147.9 67.8-215 143-17.8 20-28.2 32.8-48 59.4-39.9 53.5-67.1 95.1-127.9 195.7-5.9 9.8-10.9 17.8-11.1 17.8-.1 0-11.2-1.1-24.6-2.5-46.4-4.8-69-9.6-96.7-20.6-49.8-19.8-86.2-50.5-105.3-88.7l-5.1-10.2h-20.4c-11.2 0-20.4.2-20.4.4 0 .3 1.4 4.4 3.1 9.3 8.8 25.2 28.9 54.5 50.8 74 47 42.1 104.1 65.2 182 73.9 7.4.8 13.7 1.6 13.9 1.8.7.8-24.2 40.6-48.2 77.1-38.1 57.7-66.8 96.8-99.5 135.5-41.6 49.2-77.5 83.1-127.9 120.7l-15.3 11.4-20.2-8.9c-75.6-33.6-139.5-51.5-209.2-58.8-22.8-2.4-68.9-2.5-84.5-.1-64.7 9.7-110.5 44.6-116 88.3-1.8 13.8.4 26.3 6.6 38.8 9.4 18.6 22.8 31.3 44.9 42.4 24.9 12.5 50.8 18.4 87.6 20.2 68.3 3.2 145.6-9.3 210.9-34 24.4-9.3 37.9-15.6 70.1-33.1 7-3.8 13.2-6.9 13.9-6.9 1.1 0 37.1 19.9 84.5 46.8 24.3 13.7 66 38.1 88.5 51.7 30.3 18.3 79 45.6 112 62.8 27.9 14.5 74.1 34.6 105.1 45.7 42.5 15.2 92.8 26.4 139.9 31.1 15.6 1.6 83.8 1.5 104 0 20.7-1.7 76.4-8.7 92.2-11.6 64.7-12.1 129.8-35.3 182.7-65 15.7-8.7 47-30 62.1-42.2 24.5-19.6 54.6-50.7 72-74.4 25.2-34.2 45.4-78.3 53.4-116.7 3.8-18.3 4.9-29.3 4.9-48.2.1-42.1-9.9-78.1-30.9-111.5-19.8-31.6-50.9-58.4-88.9-76.6-36.3-17.4-75.3-26.3-126.5-29-92.6-4.9-194.2 21-278.5 71.1-44.3 26.3-78.3 53.6-116 93-49.8 52.1-87.4 115.9-110.3 187-6.2 19.4-12.6 45-11.5 46 .4.5 8.6 4.2 18 8.3 14.3 6.2 17.3 7.2 17.7 5.8.3-.9 1-4.3 1.6-7.6 9.7-50.7 37-113.9 68.8-159.4 35.3-50.4 77.1-91.3 128.9-125.9 64.6-43.1 136.6-69.1 215.8-77.9 21.2-2.3 66.8-2.3 86.5.1 28.9 3.4 50.7 8.7 73.8 17.8 49.6 19.6 84.9 53.1 101.6 96.4 7.9 20.5 11.1 38.7 11 63.4-.1 34-7.4 63-24.9 98.5-17.7 35.9-42 67.3-74.8 96.3-64.9 57.4-146.5 94.4-250.7 113.6-45.8 8.4-109.3 12.9-154.8 10.8-28.5-1.2-41.8-2.7-69.2-7.7-56.3-10.3-113.1-30.5-179.5-64-42.5-21.5-45.5-23.2-183-103.3-29.7-17.3-61.5-35.9-70.8-41.4l-16.7-9.9 8.2-6.1c41.5-30.7 84.3-71.9 123.2-118.5 45.9-55.1 68.5-87.9 137.8-199.8 12.6-20.4 23.7-37.8 24.6-38.7 1.5-1.5 5.5-1.9 29.2-2.8 80.6-3.1 148.1-16.2 219-42.5 75.5-28 142.8-68.4 202.8-121.7 10.3-9.1 37.2-36.1 45.8-45.9 47-53.8 74.5-117.4 69.5-161-1.5-13.4-3.4-20.6-8.2-30.7-12.6-27.2-38.1-46.6-72.1-55.2-18.4-4.6-35-6-57.3-4.8zm43.4 40.7c28.7 7.2 47.5 22.6 54.4 44.6 3.1 10.1 3.1 29.6-.1 41-9.5 33.6-31.8 69.5-69.2 111.1-41.6 46.3-101.9 90.7-164.5 121-31.4 15.2-49 22.3-82.5 33.2-55.3 18-107 27.5-170 31.1-8 .4-14.6.7-14.8.6-.7-.6 71.6-115.7 93.3-148.5 50.9-77.1 111.2-142.5 165-179.2 45.4-31 95.2-51 140.8-56.8 12.1-1.5 37.9-.5 47.6 1.9zm-1040.1 736.7c27.7 2.5 57.2 7.9 84.8 15.5 26.8 7.3 67 21.3 93.4 32.4 9.2 3.9 10.9 5 9.8 6-1.8 1.8-27.1 14.4-39 19.4-21 8.9-47.2 17.9-65.5 22.5-75.7 19.2-150.3 21.9-195.3 7-12.3-4.1-26.9-11.8-33.7-17.9-8.8-7.9-13.7-17.9-13.7-27.9 0-9.6 4-18.3 12.6-27.2 17.2-17.9 44.4-28.6 80.3-31.4 13.2-1.1 45.9-.3 66.3 1.6z"/>
  </g>
</svg>
