<svg xmlns="http://www.w3.org/2000/svg" preserveAspectRatio="xMidYMid meet" version="1.0" viewBox="0 350 3300 1100">
  <g fill="#000000" stroke="none">
    <path d="M816 615.7c-34 3.3-63.7 15.2-92 36.7-17.7 13.5-34.8 31.5-45.6 48.1-37.6 58-37.8 139.4-.4 196.5 23.3 35.5 62.4 65.9 100.1 77.9 20.5 6.4 28.1 7.5 53.4 7.5 24.6 0 30.3-.7 52.1-6.9 13.3-3.8 38.7-16.8 51.9-26.6 39.3-29.4 62.7-65 72.4-109.9 8.8-41.6 3.1-87.4-15.5-124-8.8-17.2-17.7-29.2-32.4-44.1-32.3-32.5-68.7-50.7-109.9-54.9-9.7-.9-26.1-1.1-34.1-.3zm37.3 52.8c25.2 4.4 46.2 15.8 64.7 35.1 18.4 19.4 27.8 37.9 33.7 67.2 2.5 12.3 2.5 45-.1 57.7-7 35.2-23.2 60.9-51.6 82-26.1 19.3-65.9 26.1-100 17-36.7-9.8-71.6-43.1-83.8-80.1-10.4-31.2-10.4-64.6-.1-95.8 4.7-14.3 9.7-23.5 18.9-35.3 20.4-26.2 47.6-43.4 76.5-48.2 8.5-1.5 32.6-1.2 41.8.4zM1217 616c-32.1 4.5-59.6 19.1-77.3 41-6.8 8.4-11.5 17.9-14.9 29.6-3.1 11-3.1 33.1 0 44.6 6.3 23.1 17.2 37.7 39.7 52.7 17.3 11.6 27.6 16.3 69.6 31.5 13 4.7 27.4 10.2 32 12.2 32.9 14.3 45.1 30.2 43.6 56.9-.8 15-6.1 25.7-17 34.3-30.3 24-81.7 24-114.3-.1-12-8.8-19.3-17.5-26.9-31.8l-4-7.5-21.7 9.5c-12 5.3-21.8 10.1-21.8 10.7 0 1.7 7.6 16.8 11.6 23.1 18.6 29.3 51.9 50.9 89.4 58 14.6 2.7 50 2.4 63.3-.5 38.3-8.5 70.8-29.8 84.2-55.3 8.2-15.6 11.1-29.4 10.2-48.2-.7-14.2-3.1-24.5-8.6-36.2-12-25.4-40.8-47.9-81.6-63.8-4.9-1.9-19.8-7.2-33-11.7-28.3-9.6-41.1-15.8-50.1-24.3-18.8-17.5-18.9-46.2-.2-63.1 10-9.1 22.2-13.9 39.1-15.5 34.4-3.3 64 10.3 78.4 36 1.6 2.7 3.2 4.9 3.8 4.9.5 0 11-3.4 23.2-7.7l22.2-7.6-3.4-6.6c-16.7-31.6-51.4-56.6-88.5-63.6-10.1-1.9-37.8-2.8-47-1.5zM2846 615.6c-32.6 4.2-57.5 16.1-76.7 36.8-8.7 9.4-12.7 16.2-17.1 28.9-3.1 9.1-3.6 11.6-4 23.2-1.2 35.3 11.6 59.6 42.2 79.7 16.6 11 28.3 16.3 65.6 29.8 35.6 12.9 45.9 17.5 57 25 14.1 9.7 19.6 18.5 22.1 35.3 1.5 10.1-.1 20-4.6 29.4-14.5 29.7-66.5 42.1-107.4 25.7-20-8-37.2-23.9-46.4-43.1l-3.4-7.1-21.4 9.5c-11.8 5.1-21.7 9.7-22.1 10.1-.4.4 1.2 4.8 3.6 9.8 14.8 31.1 42.8 55.4 77 66.8 17.4 5.8 26.2 7 50.6 7 19.6 0 23.8-.2 32.7-2.2 41.8-9.1 76-33.7 87.9-63.2 4.9-12 6.5-20.6 6.5-34.6 0-14.9-1.7-24.9-6.3-36.7-10.2-26.6-37.9-50.1-79-67.1-4.6-1.9-19.8-7.3-33.8-12.1-38.2-13.1-51.3-20.1-59.8-32-6.1-8.4-7.7-14.1-7.7-26.5 0-9.7.2-11 3.2-17.3 3.8-8 11.7-16.1 20.2-20.5 24.2-12.8 62.1-11.1 84.4 3.8 8.8 5.9 18.2 15.6 22.6 23.4 1.8 3.1 3.6 5.6 4.1 5.6.9 0 44.3-15 44.8-15.5.6-.6-4-8.9-9.1-16.4-10.4-15.5-30.2-33-47.2-41.8-18.2-9.3-34.6-13.2-58.9-13.8-8.8-.2-17.7-.1-19.6.1zM334 799.5V980h54l.2-77.8.3-77.7 68.3-.3 68.2-.2v-47H388l.2-55.8.3-55.7 92.8-.3 92.7-.2v-46H334v180.5zM1461 642.5V666h108v314h56V666h108v-47h-272v23.5zM1869 799.5V980l122.8-.2 122.7-.3.3-23.3.2-23.2h-191V824h124v-47h-124V665h186v-46h-241v180.5zM2257 799.4V980h53l.2-68.3.3-68.2 27.6-.3 27.5-.2 47.3 68.5 47.2 68.5h29.5c23.4 0 29.4-.3 28.8-1.3-.4-.6-22.5-32.1-49.1-69.9-26.6-37.8-48.3-69.1-48.3-69.5 0-.4 3.5-1.8 7.8-3.1 11.8-3.6 25.1-10.4 35.9-18.6 11.5-8.7 14.2-11.4 21.9-22.1 22.3-31.1 26.6-73.5 11.1-110.2-8.7-20.6-29.1-41.5-51.2-52.6-7.5-3.7-21.4-8.4-32.3-10.9-9.4-2.1-11.8-2.2-83.4-2.5l-73.8-.4v180.5zM2390 667c20 2.1 34.8 8.6 46.6 20.5 11.3 11.4 16.4 25 16.4 43.5 0 18.6-5.2 32.3-16.4 43.6-11.8 11.8-26.7 18.3-46.6 20.4-5.6.5-25.9 1-45.1 1H2310V666h34.9c19.2 0 39.5.5 45.1 1zM2613 619.2c0 .2-4.7 17.8-10.4 39.3-5.7 21.4-10.2 39.3-10 39.6.3.6 46.3.4 46.8-.2.1-.2 8.9-16.2 19.6-35.4 10.6-19.3 20.4-36.9 21.7-39.3l2.5-4.2h-35.1c-19.3 0-35.1.1-35.1.2zM1318 1247.5V1359h153v-28h-120v-195h-33v111.5zM1578.4 1246.6c-28.5 60.9-52 111-52.2 111.5-.2.5 7.7.9 17.6.9h18l13-29.3 13-29.2H1679.5l12.9 29.2 13 29.3h35.7l-1.4-2.8c-.7-1.5-24.3-51.6-52.3-111.5l-50.9-108.7h-6.2l-51.9 110.6zm72-10.4c8.6 19.1 15.6 35.2 15.6 35.8 0 .7-10.7 1-32.5 1-18 0-32.5-.4-32.5-.9 0-.7 25.8-59.3 31.1-70.4.9-2 1.5-2.4 2-1.5.4.7 7.7 16.9 16.3 36zM1813.8 1136.6c-.5.4-.8 50.6-.8 111.6V1359h45.3c46.6 0 56.7-.6 69.7-4.1 18.9-5.1 33.9-16.6 41-31.3 5.1-10.9 6.4-17.1 6.4-30.1 0-9.3-.4-12-2.6-17.7-6.1-16.3-15.9-26.8-32-34.7l-9.6-4.8 5.4-2.6c14.9-7.3 23.4-21.9 23.4-40.1 0-9.5-2.6-20.9-6.5-28.5-6-11.9-19.7-21.6-37-26.3-7.5-2-10.8-2.1-55-2.5-25.8-.3-47.3-.1-47.7.3zm95.6 30.3c11.2 4.5 17.1 12.4 18.3 24.5 1.4 14.8-4.8 25.8-17.2 30.7-5.7 2.2-7.3 2.4-35.2 2.7l-29.3.3v-61.3l28.8.4c27.2.4 29 .5 34.6 2.7zm-.9 87.1c18.9 2.8 31.7 14.6 34.4 32.2 2.8 17.2-5.3 33.7-19.4 39.9-9.5 4.2-15.3 4.8-47.2 4.9H1846v-78h27.8c15.2 0 30.8.5 34.7 1z"/>
  </g>
</svg>
